<?xml version="1.0" encoding="utf-8"?>
<!-- Generator: Adobe Illustrator 16.0.0, SVG Export Plug-In . SVG Version: 6.00 Build 0)  -->
<!DOCTYPE svg PUBLIC "-//W3C//DTD SVG 1.1//EN" "http://www.w3.org/Graphics/SVG/1.1/DTD/svg11.dtd">
<svg version="1.1" id="Layer_1" xmlns="http://www.w3.org/2000/svg" xmlns:xlink="http://www.w3.org/1999/xlink" x="0px" y="0px"
	 width="184.862px" height="94.093px" viewBox="0 0 184.862 94.093" enable-background="new 0 0 184.862 94.093"
	 xml:space="preserve">
<radialGradient id="SVGID_1_" cx="151.0156" cy="58.5332" r="21.091" gradientTransform="matrix(-1 0 0 -0.1853 302.0313 57.9343)" gradientUnits="userSpaceOnUse">
	<stop  offset="0" style="stop-color:#00628B"/>
	<stop  offset="0.0157" style="stop-color:#00638C;stop-opacity:0.9843"/>
	<stop  offset="0.5066" style="stop-color:#79A5C2;stop-opacity:0.4934"/>
	<stop  offset="0.8442" style="stop-color:#D1DEE7;stop-opacity:0.1558"/>
	<stop  offset="1" style="stop-color:#FFFFFB;stop-opacity:0"/>
</radialGradient>
<ellipse fill="url(#SVGID_1_)" cx="151.386" cy="47.199" rx="22.039" ry="4.021"/>
<radialGradient id="SVGID_2_" cx="24.9473" cy="89.8955" r="21.091" gradientTransform="matrix(-1.103 0 0 -0.2175 51.4177 104.0317)" gradientUnits="userSpaceOnUse">
	<stop  offset="0" style="stop-color:#00628B"/>
	<stop  offset="0.0157" style="stop-color:#00638C;stop-opacity:0.9843"/>
	<stop  offset="0.5066" style="stop-color:#79A5C2;stop-opacity:0.4934"/>
	<stop  offset="0.8442" style="stop-color:#D1DEE7;stop-opacity:0.1558"/>
	<stop  offset="1" style="stop-color:#FFFFFB;stop-opacity:0"/>
</radialGradient>
<ellipse fill="url(#SVGID_2_)" cx="24.309" cy="84.607" rx="24.309" ry="4.721"/>
<radialGradient id="SVGID_3_" cx="63.3828" cy="86.9424" r="21.0914" gradientTransform="matrix(-2.3157 -0.0495 0.0018 -0.0841 245.4524 102.342)" gradientUnits="userSpaceOnUse">
	<stop  offset="0" style="stop-color:#00628B"/>
	<stop  offset="0.0157" style="stop-color:#00638C;stop-opacity:0.9843"/>
	<stop  offset="0.5066" style="stop-color:#79A5C2;stop-opacity:0.4934"/>
	<stop  offset="0.8442" style="stop-color:#D1DEE7;stop-opacity:0.1558"/>
	<stop  offset="1" style="stop-color:#FFFFFB;stop-opacity:0"/>
</radialGradient>
<path fill="url(#SVGID_3_)" d="M150.729,93.057c-0.021,1.007-22.888,1.337-51.071,0.734c-28.191-0.602-51.018-1.907-50.997-2.915
	s22.883-1.336,51.074-0.733C127.918,90.745,150.75,92.048,150.729,93.057z"/>
<g>
	<path fill="#DCB223" d="M53.531,40.24c0.064,0.062,0.095,0.146,0.162,0.205c1.423,1.264,3.649,1.905,6.617,1.905
		c2.842,0,5.068-0.677,6.613-2.011c0.694-0.596,1.165-1.267,1.401-1.995c0.231-0.719,0.345-1.789,0.345-3.271v-9.748
		c0-1.026,0.057-1.793,0.17-2.281c0.108-0.459,0.306-0.842,0.589-1.135c0.26-0.268,0.557-0.465,0.882-0.584
		c0.339-0.124,0.794-0.203,1.353-0.23l0.25-0.015v-0.869l-2.639-2.639h-7.649v0.869l2.639,2.639l0.25,0.015
		c0.104,0.005,0.187,0.021,0.284,0.03c0.043,0.43,0.071,0.928,0.071,1.562v8.636c0,1.56-0.021,2.56-0.061,2.973
		c-0.059,0.616-0.179,1.128-0.356,1.522c-0.174,0.387-0.452,0.752-0.823,1.085c-0.619,0.55-1.407,0.987-2.341,1.3
		c-0.941,0.314-1.945,0.472-2.983,0.472c-0.818,0-1.497-0.136-2.097-0.345c-0.104-0.278-0.181-0.568-0.233-0.867
		c-0.105-0.616-0.158-1.638-0.158-3.038v-8.743c0-1.232,0.053-2.109,0.156-2.603c0.098-0.464,0.301-0.856,0.607-1.172
		c0.249-0.267,0.541-0.462,0.871-0.581c0.344-0.125,0.801-0.204,1.36-0.231l0.25-0.015v-0.869l-2.639-2.639H46.021v0.869
		l2.639,2.639l0.25,0.015c0.105,0.005,0.188,0.021,0.287,0.03c0.04,0.43,0.068,0.928,0.068,1.562v9.377
		c0,1.208,0.031,2.023,0.095,2.493c0.183,1.336,0.753,2.43,1.693,3.25L53.531,40.24z"/>
	<path fill="#DCB223" d="M88.101,19.537c-1.546-1.095-3.452-1.734-5.662-1.901c-0.526-0.043-1.711-0.063-3.62-0.063h-8.76v0.869
		l2.639,2.639l0.25,0.015c0.11,0.005,0.186,0.037,0.289,0.047c0.041,0.43,0.067,0.932,0.067,1.544v11.386
		c0,1.025-0.056,1.792-0.17,2.281c-0.108,0.459-0.306,0.842-0.589,1.135c-0.26,0.268-0.555,0.465-0.875,0.585
		c-0.333,0.123-0.792,0.202-1.359,0.23l-0.25,0.015v0.868l2.639,2.64h11.68c1.339,0,2.67-0.121,3.958-0.361
		c1.756-0.327,3.243-1.107,4.419-2.315c0.835-0.857,1.497-1.946,1.965-3.238c0.467-1.284,0.704-2.668,0.704-4.113
		c0-1.978-0.414-3.833-1.232-5.515c-0.462-0.952-1.061-1.779-1.736-2.529L88.101,19.537z M71.817,20.201 M87.869,24.933
		c0.431,1.285,0.65,2.66,0.65,4.087c0,1.285-0.18,2.514-0.536,3.652c-0.355,1.133-0.878,2.152-1.558,3.032
		c-0.681,0.898-1.461,1.555-2.319,1.952c-0.862,0.399-1.919,0.6-3.141,0.6c-0.359,0-0.69-0.027-0.999-0.075
		c-0.069-0.484-0.114-1.082-0.114-1.872V21.217h1.605c1.31,0,2.398,0.116,3.235,0.345c0.676,0.189,1.307,0.482,1.904,0.85
		C87.108,23.178,87.556,24.001,87.869,24.933z"/>
	<path fill="#DCB223" d="M102.157,41.825h10.399v-0.884l-2.64-2.639h-0.263c-0.107,0-0.182-0.039-0.283-0.045
		c-0.036-0.421-0.059-0.917-0.059-1.547v-3.784c0-0.681,0.042-1.165,0.127-1.436c0.085-0.274,0.334-0.724,0.74-1.34l3.523-5.376
		c0.839-1.285,1.612-2.261,2.289-2.899c0.274-0.246,0.546-0.425,0.805-0.532c0.213-0.087,0.534-0.156,0.911-0.211l1.125,1.105
		c0.004,0.005,0.007,0.012,0.012,0.017c-0.091,0.208-0.183,0.415-0.306,0.625c-0.259,0.453-0.575,0.827-0.938,1.113
		c-0.372,0.293-0.885,0.577-1.53,0.844l-0.246,0.102l0.329,0.769l2.639,2.639l0.212-0.045c0.922-0.193,1.744-0.574,2.441-1.132
		c0.667-0.528,1.209-1.21,1.61-2.03c0.402-0.82,0.607-1.662,0.607-2.502c0-0.869-0.211-1.583-0.627-2.123
		c-0.072-0.094-0.171-0.134-0.252-0.212c-0.016-0.023-0.021-0.057-0.04-0.08c-0.073-0.096-0.174-0.135-0.255-0.214
		c-0.017-0.024-0.022-0.058-0.04-0.081l-2.052-2.052c-0.432-0.56-1.005-0.844-1.707-0.844c-0.577,0-1.077,0.213-1.488,0.636
		c-0.299,0.308-0.453,0.68-0.533,1.078l-1.115-1.173h-7.634v0.883l2.316,2.052c0.012,0,0.018,0.004,0.03,0.004v0.136
		c-0.065,0.404-0.198,0.815-0.466,1.233l-3.286,5.134l-1.802-2.819c-0.279-0.439-0.484-0.806-0.605-1.09
		c-0.114-0.264-0.171-0.5-0.171-0.699c0-0.546,0.224-0.896,0.707-1.103c0.141-0.062,0.526-0.149,1.547-0.211l0.248-0.014v-0.868
		l-2.639-2.639h-10.6v0.872l2.639,2.638l0.252,0.012c0.444,0.019,0.792,0.058,1.031,0.116c0.029,0.007,0.061,0.029,0.09,0.038
		l4.141,6.234c0.592,0.892,0.988,1.64,1.175,2.224c0.166,0.495,0.249,0.952,0.249,1.352l-0.015,3.014
		c0,1.036-0.056,1.807-0.164,2.29c-0.102,0.454-0.298,0.833-0.581,1.126c-0.258,0.268-0.559,0.465-0.89,0.584
		c-0.343,0.124-0.802,0.203-1.36,0.231l-0.25,0.015v0.868L102.157,41.825z"/>
	<path fill="#DCB223" d="M126.192,41.763h0.803l0.064-0.171c0.146-0.388,0.392-0.569,0.773-0.569c0.124,0,0.238,0.014,0.333,0.047
		c0.08,0.027,0.338,0.13,1.122,0.471c1.254,0.537,2.578,0.81,3.936,0.81c1.494,0,2.813-0.342,3.921-1.017
		c1.113-0.676,1.958-1.652,2.514-2.901c0.395-0.892,0.595-1.841,0.595-2.818c0-1.475-0.445-2.789-1.32-3.905
		c-0.215-0.278-0.48-0.548-0.772-0.813c-0.092-0.096-0.18-0.19-0.281-0.284c-0.095-0.097-0.186-0.194-0.292-0.291
		c-0.097-0.1-0.19-0.2-0.297-0.299c-0.097-0.097-0.187-0.196-0.292-0.291c-0.097-0.099-0.19-0.199-0.296-0.295
		c-0.095-0.099-0.187-0.196-0.292-0.293c-0.096-0.1-0.19-0.199-0.297-0.297c-0.091-0.094-0.178-0.187-0.278-0.279
		c-0.77-0.793-1.851-1.535-3.259-2.203l-2.177-1.052c-0.131-0.062-0.22-0.135-0.345-0.2c-0.113-0.344-0.182-0.702-0.182-1.083
		c0-0.399,0.075-0.805,0.223-1.207c0.146-0.398,0.35-0.751,0.609-1.049c0.621-0.728,1.448-1.082,2.528-1.082
		c0.433,0,0.826,0.081,1.2,0.203c0.135,0.263,0.283,0.509,0.395,0.797c0.197,0.508,0.429,1.235,0.709,2.224l0.054,0.192l2.639,2.639
		h0.823l-0.117-6.66l-2.639-2.639h-0.823l-0.047,0.203c-0.137,0.585-0.378,0.585-0.47,0.585c-0.117,0-0.257-0.024-0.417-0.073
		c-0.177-0.054-0.523-0.185-1.026-0.385c-0.7-0.292-1.269-0.492-1.694-0.592c-0.429-0.103-0.902-0.154-1.404-0.154
		c-1.555,0-2.919,0.533-4.054,1.583c-0.643,0.588-1.151,1.305-1.51,2.128c-0.358,0.822-0.539,1.69-0.539,2.577
		c0,1.453,0.47,2.703,1.398,3.716c0.07,0.079,0.167,0.156,0.249,0.233c0.017,0.02,0.026,0.041,0.045,0.061
		c0.071,0.077,0.167,0.155,0.247,0.233c0.019,0.019,0.029,0.042,0.047,0.061c0.071,0.079,0.167,0.156,0.248,0.234
		c0.017,0.018,0.027,0.04,0.044,0.058c0.071,0.079,0.167,0.156,0.249,0.234c0.016,0.018,0.028,0.04,0.044,0.06
		c0.072,0.077,0.167,0.155,0.249,0.232c0.016,0.02,0.028,0.042,0.044,0.061c0.069,0.078,0.166,0.153,0.246,0.23
		c0.016,0.019,0.029,0.043,0.047,0.063c0.071,0.078,0.166,0.154,0.247,0.231c0.017,0.019,0.028,0.043,0.046,0.062
		c0.073,0.077,0.167,0.154,0.249,0.232c0.017,0.019,0.028,0.041,0.045,0.061c0.071,0.078,0.166,0.154,0.248,0.233
		c0.017,0.019,0.028,0.041,0.046,0.061c0.333,0.364,0.772,0.727,1.309,1.077c0.525,0.344,1.291,0.77,2.272,1.265
		c0.562,0.287,1.047,0.547,1.463,0.785c0.057,0.139,0.143,0.239,0.19,0.392c0.162,0.517,0.244,1.032,0.244,1.527
		c0,1.155-0.355,2.079-1.084,2.829c-0.728,0.747-1.625,1.11-2.747,1.11c-0.589,0-1.126-0.146-1.639-0.362
		c-0.464-0.858-0.892-1.902-1.245-3.23l-0.05-0.187l-2.638-2.639l-0.822-0.036l-0.05,6.919L126.192,41.763z"/>
	<path fill="#DCB223" d="M67.853,59.143l0.25,0.014c0.104,0.005,0.186,0.021,0.282,0.03c0.043,0.431,0.074,0.929,0.074,1.562v11.386
		c0,1.025-0.057,1.792-0.172,2.28c-0.106,0.459-0.304,0.842-0.588,1.135c-0.259,0.269-0.556,0.465-0.881,0.585
		c-0.34,0.123-0.794,0.203-1.353,0.231l-0.25,0.014v0.868l2.639,2.639h18.948l0.217-6.664l-2.639-2.64l-0.839-0.036l-0.045,0.218
		c-0.191,0.906-0.403,1.646-0.628,2.194c-0.221,0.54-0.51,1.025-0.865,1.45c-0.493,0.619-1.141,1.083-1.926,1.377
		c-0.801,0.301-1.813,0.454-3.012,0.454c-0.707,0-1.296-0.087-1.83-0.215c-0.047-0.212-0.093-0.429-0.119-0.673
		c-0.071-0.63-0.107-1.658-0.107-3.052v-3.273h0.617c0.432,0,0.807,0.033,1.15,0.084c0.078,0.34,0.146,0.716,0.197,1.152L77,70.498
		l2.639,2.639h0.852l0.065-8.797l-2.639-2.639l-0.854-0.037l-0.028,0.242c-0.09,0.772-0.203,1.359-0.336,1.747
		c-0.125,0.368-0.32,0.691-0.584,0.962c-0.262,0.282-0.609,0.479-1.033,0.589c-0.019,0.006-0.052,0.007-0.073,0.013V59.28h3.273
		c1.067,0,1.931,0.073,2.568,0.217c0.187,0.043,0.354,0.111,0.527,0.172c0.148,0.411,0.274,0.858,0.355,1.381l0.036,0.234
		l2.639,2.64l0.856-0.037l-0.288-5.614l-2.639-2.638H65.214v0.868L67.853,59.143z"/>
	<path fill="#DCB223" d="M22.948,47.795c0.261,0.285,0.559,0.554,0.939,0.787c0.625,0.392,1.464,0.707,2.49,0.94
		c1.015,0.229,2.074,0.345,3.145,0.345c1.791,0,3.574-0.305,5.298-0.905c1.729-0.608,3.124-1.414,4.146-2.399
		c1.029-1.008,1.749-2.234,2.137-3.645c0.382-1.386,0.577-3.395,0.577-5.974V11.654c0-1.969,0.135-3.44,0.4-4.374
		c0.256-0.906,0.729-1.653,1.404-2.222c0.48-0.411,1.012-0.708,1.578-0.883c0.583-0.183,1.373-0.302,2.344-0.358l0.249-0.013V2.639
		L45.017,0H26.25v1.159l2.64,2.639l0.243,0.019c0.955,0.077,1.802,0.297,2.55,0.642c0.171,0.41,0.321,0.843,0.405,1.346
		c0.167,0.942,0.251,2.013,0.251,3.182v25.064c0,4.293-0.234,7.231-0.695,8.727c-0.342,1.063-0.835,1.881-1.466,2.432
		c-0.627,0.548-1.344,0.813-2.191,0.813c-0.063,0-0.111-0.02-0.173-0.023c-0.224-0.565-0.418-1.029-0.551-1.288
		c-0.182-0.353-0.397-0.655-0.646-0.904l-2.64-2.64c-0.52-0.499-1.162-0.752-1.91-0.752c-0.767,0-1.402,0.246-1.886,0.729
		C19.7,41.628,19.454,42.252,19.454,43c0,0.98,0.404,1.801,1.166,2.465L22.948,47.795z"/>
	<path fill="#DCB223" d="M53.155,82.793c0.174,0.292,0.43,0.548,0.78,0.761c0.354,0.22,0.823,0.398,1.396,0.528
		c0.563,0.128,1.148,0.192,1.742,0.192c0.994,0,1.979-0.168,2.93-0.501c0.958-0.335,1.734-0.784,2.306-1.335
		c0.578-0.565,0.979-1.253,1.197-2.042c0.212-0.766,0.319-1.873,0.319-3.291V63.31c0-1.062,0.073-1.854,0.214-2.353
		c0.137-0.478,0.374-0.855,0.729-1.154c0.25-0.212,0.525-0.367,0.819-0.46c0.308-0.095,0.728-0.159,1.25-0.189l0.248-0.012v-0.87
		l-2.639-2.638H53.968v0.861l2.639,2.639l0.243,0.02c0.122,0.01,0.211,0.06,0.327,0.077c0.062,0.44,0.112,0.9,0.112,1.424v13.67
		c0,2.333-0.126,3.921-0.374,4.724c-0.18,0.558-0.436,0.987-0.765,1.272c-0.213,0.186-0.459,0.286-0.722,0.347
		c-0.004-0.004-0.009-0.007-0.013-0.01l-2.484-2.538c-0.308-0.294-0.687-0.444-1.125-0.444c-0.452,0-0.827,0.146-1.113,0.433
		c-0.287,0.287-0.433,0.656-0.433,1.097c0,0.492,0.225,0.89,0.551,1.243L53.155,82.793z"/>
	<path fill="#DCB223" d="M181.599,65.304h1.059l-0.189-10.749l-2.64-2.639h-1.059l-0.047,0.203
		c-0.261,1.111-0.783,1.111-0.953,1.111c-0.215,0-0.467-0.045-0.748-0.13c-0.298-0.092-0.88-0.311-1.727-0.648
		c-1.155-0.484-2.097-0.814-2.795-0.979c-0.707-0.167-1.48-0.252-2.301-0.252c-2.545,0-4.78,0.873-6.639,2.593
		c-1.053,0.966-1.884,2.139-2.472,3.488c-0.588,1.348-0.884,2.769-0.884,4.225c0,2.375,0.769,4.417,2.284,6.074
		c0.069,0.078,0.168,0.153,0.243,0.229c0.019,0.021,0.031,0.044,0.049,0.064c0.072,0.08,0.173,0.159,0.252,0.237
		c0.016,0.018,0.025,0.038,0.042,0.056c0.07,0.077,0.168,0.153,0.243,0.229c0.018,0.021,0.031,0.044,0.049,0.065
		c0.071,0.079,0.173,0.157,0.251,0.236c0.018,0.018,0.027,0.038,0.043,0.055c0.07,0.079,0.171,0.156,0.248,0.234
		c0.017,0.018,0.029,0.04,0.046,0.06c0.072,0.078,0.172,0.157,0.25,0.236c0.017,0.017,0.028,0.037,0.043,0.055
		c0.069,0.076,0.166,0.152,0.24,0.227c0.02,0.021,0.033,0.046,0.052,0.068c0.073,0.08,0.177,0.16,0.255,0.241
		c0.015,0.015,0.024,0.035,0.04,0.051c0.069,0.078,0.169,0.153,0.245,0.229c0.018,0.021,0.029,0.044,0.047,0.064
		c0.541,0.594,1.263,1.189,2.149,1.768c0.87,0.57,2.139,1.275,3.77,2.099c1.699,0.867,2.986,1.594,3.872,2.177
		c0.286,0.495,0.542,1.03,0.733,1.645c0.274,0.879,0.415,1.754,0.415,2.599c0,1.945-0.625,3.574-1.857,4.836
		c-1.23,1.264-2.813,1.903-4.702,1.903c-1.407,0-2.694-0.391-3.863-1.137c-0.106-0.15-0.228-0.258-0.33-0.417
		c-0.977-1.53-1.832-3.656-2.542-6.322l-0.05-0.187l-2.639-2.64l-0.489-0.021l0.11-3.495l-2.639-2.639l-0.854-0.071l-0.047,0.229
		c-0.192,0.938-0.403,1.703-0.628,2.273c-0.222,0.562-0.507,1.068-0.85,1.509c-0.503,0.641-1.16,1.119-1.95,1.424
		c-0.805,0.311-1.815,0.467-3.001,0.467c-0.708,0-1.298-0.087-1.83-0.216c-0.048-0.217-0.092-0.439-0.119-0.694
		c-0.072-0.656-0.107-1.676-0.107-3.03v-8.914c0-1.055,0.059-1.84,0.177-2.332c0.111-0.464,0.325-0.853,0.638-1.154
		c0.248-0.24,0.539-0.416,0.86-0.527c0.335-0.116,0.78-0.189,1.319-0.219l0.25-0.012v-0.87l-2.64-2.638H137.88v0.873l2.639,2.638
		l0.254,0.011c0.103,0.004,0.184,0.018,0.279,0.026c0.043,0.433,0.071,0.937,0.071,1.566v11.386c0,1.025-0.056,1.792-0.171,2.28
		c-0.106,0.459-0.304,0.842-0.587,1.135c-0.131,0.135-0.318,0.203-0.478,0.305l0.086-2.631l-2.639-2.64l-0.838-0.036l-0.046,0.218
		c-0.192,0.906-0.403,1.646-0.628,2.194c-0.22,0.54-0.51,1.025-0.865,1.45c-0.493,0.619-1.14,1.083-1.925,1.377
		c-0.801,0.301-1.814,0.454-3.013,0.454c-0.707,0-1.296-0.087-1.829-0.215c-0.048-0.212-0.093-0.429-0.12-0.673
		c-0.071-0.63-0.107-1.658-0.107-3.052v-3.273h0.616c0.433,0,0.807,0.033,1.151,0.084c0.078,0.34,0.146,0.716,0.197,1.152
		l2.666,2.873h0.851l0.066-8.797l-2.639-2.639l-0.854-0.037l-0.028,0.242c-0.091,0.772-0.204,1.359-0.336,1.747
		c-0.125,0.368-0.32,0.691-0.584,0.962c-0.263,0.282-0.609,0.479-1.032,0.589c-0.02,0.006-0.053,0.007-0.074,0.013V59.28h3.272
		c1.068,0,1.933,0.073,2.569,0.217c0.187,0.043,0.354,0.111,0.526,0.172c0.148,0.411,0.274,0.858,0.355,1.381l0.036,0.234
		l2.639,2.64l0.857-0.037l-0.289-5.614l-2.639-2.638h-16.825h-0.296h-7.384v0.882l2.543,2.347c-0.06,0.82-0.342,1.89-0.917,3.284
		l-2.937,7.209l-1.978-6.372c-0.278-0.887-0.419-1.51-0.419-1.852c0-0.354,0.085-0.689,0.252-0.993
		c0.167-0.303,0.388-0.538,0.649-0.694c0.207-0.117,0.434-0.194,0.674-0.23c0.257-0.041,0.689-0.06,1.281-0.06h0.264v-0.883
		l-2.64-2.638H97.099v0.882l2.638,2.64h0.265c0.076,0,0.136,0.009,0.208,0.011c0.009,0.103,0.055,0.197,0.055,0.299
		c0,0.608-0.213,1.557-0.634,2.821L97.2,69.625l-2.594-6.339l-0.403-0.96c-0.313-0.727-0.473-1.294-0.473-1.688
		c0-0.301,0.072-0.564,0.222-0.801c0.148-0.235,0.333-0.399,0.556-0.499c0.204-0.083,0.673-0.181,1.755-0.181h0.264v-0.883
		l-2.639-2.638H83.643v0.861l2.639,2.639l0.244,0.02c0.269,0.021,0.501,0.048,0.707,0.077c0.017,0.039,0.03,0.063,0.046,0.104
		l7.369,17.75l0.067,0.162l2.639,2.639h1.061l4.501-13.279l3.557,10.64l2.639,2.639h0.999l6.417-15.549
		c0.761-1.858,1.401-3.154,1.902-3.858c0.324-0.469,0.65-0.792,0.966-0.962c0.324-0.172,0.818-0.295,1.47-0.363l0.058-0.006
		l0.134,0.008c0.104,0.005,0.185,0.021,0.281,0.03c0.044,0.431,0.074,0.929,0.074,1.562v11.386c0,1.025-0.058,1.792-0.171,2.28
		c-0.107,0.459-0.304,0.842-0.589,1.135c-0.26,0.269-0.556,0.465-0.881,0.585c-0.34,0.123-0.795,0.203-1.354,0.231l-0.25,0.014
		v0.868l2.64,2.639h18.947l0.028-0.879l0.734,0.879h18.477l-0.057,7.804l2.64,2.639h1.04l0.065-0.17
		c0.268-0.718,0.744-1.065,1.452-1.065c0.23,0,0.435,0.03,0.611,0.088c0.141,0.048,0.583,0.224,1.886,0.791
		c2.067,0.886,4.249,1.335,6.488,1.335c2.459,0,4.626-0.562,6.446-1.668c1.825-1.113,3.211-2.712,4.119-4.755
		c0.648-1.468,0.976-3.024,0.976-4.627c0-2.42-0.729-4.572-2.163-6.397c-0.341-0.441-0.754-0.871-1.213-1.293
		c-0.091-0.091-0.177-0.183-0.274-0.273c-0.098-0.097-0.188-0.194-0.29-0.289c-0.099-0.1-0.19-0.199-0.295-0.296
		c-0.099-0.098-0.189-0.196-0.294-0.294c-0.096-0.095-0.184-0.192-0.286-0.288c-0.101-0.1-0.194-0.202-0.301-0.301
		c-0.101-0.1-0.191-0.198-0.299-0.298c-0.091-0.089-0.171-0.179-0.266-0.268c-1.259-1.256-3.006-2.431-5.258-3.497l-3.625-1.755
		c-0.72-0.343-1.348-0.713-1.925-1.1c-0.537-0.909-0.813-1.895-0.813-2.957c0-0.686,0.129-1.384,0.381-2.071
		c0.254-0.688,0.605-1.294,1.046-1.802c1.058-1.238,2.52-1.866,4.349-1.866c1.179,0,2.229,0.297,3.148,0.833
		c0.083,0.125,0.178,0.212,0.26,0.344c0.455,0.725,0.849,1.521,1.174,2.361c0.332,0.865,0.731,2.117,1.187,3.724l0.055,0.192
		L181.599,65.304z"/>
</g>
<g>
	<radialGradient id="SVGID_4_" cx="34.8745" cy="26.2534" r="18.9871" gradientUnits="userSpaceOnUse">
		<stop  offset="0.1798" style="stop-color:#F4E8D9"/>
		<stop  offset="0.5899" style="stop-color:#EDD089"/>
		<stop  offset="1" style="stop-color:#C08329"/>
	</radialGradient>
	<path fill="url(#SVGID_4_)" stroke="#6C5A0B" stroke-width="0.4" stroke-miterlimit="10" d="M28.89,3.798l0.243,0.019
		c1.812,0.146,3.259,0.776,4.309,1.878c0.656,0.655,1.088,1.578,1.286,2.749c0.167,0.942,0.251,2.013,0.251,3.182v25.064
		c0,4.293-0.234,7.231-0.695,8.727c-0.342,1.063-0.835,1.881-1.466,2.431c-0.627,0.548-1.344,0.813-2.191,0.813
		c-0.633,0-1.149-0.156-1.535-0.467c-0.394-0.315-0.748-0.864-1.052-1.629c-0.338-0.886-0.6-1.509-0.776-1.854
		c-0.182-0.353-0.397-0.655-0.646-0.904c-0.521-0.499-1.163-0.753-1.911-0.753c-0.768,0-1.401,0.246-1.886,0.729
		c-0.482,0.485-0.729,1.11-0.729,1.858c0,1.225,0.605,2.215,1.794,2.942c0.625,0.392,1.464,0.707,2.49,0.94
		c1.015,0.229,2.074,0.345,3.145,0.345c1.791,0,3.574-0.305,5.298-0.905c1.729-0.608,3.124-1.414,4.146-2.399
		c1.029-1.008,1.749-2.234,2.137-3.645c0.382-1.386,0.577-3.395,0.577-5.974V11.654c0-1.969,0.135-3.44,0.4-4.374
		c0.256-0.906,0.729-1.653,1.404-2.222c0.48-0.411,1.012-0.708,1.578-0.883c0.583-0.183,1.373-0.302,2.344-0.358l0.249-0.013V2.639
		H28.89V3.798z"/>
	<radialGradient id="SVGID_5_" cx="60.2866" cy="31.2808" r="11.3508" gradientUnits="userSpaceOnUse">
		<stop  offset="0.1798" style="stop-color:#F4E8D9"/>
		<stop  offset="0.5899" style="stop-color:#EDD089"/>
		<stop  offset="1" style="stop-color:#C08329"/>
	</radialGradient>
	<path fill="url(#SVGID_5_)" stroke="#6C5A0B" stroke-width="0.4" stroke-miterlimit="10" d="M60.31,42.35
		c2.842,0,5.068-0.677,6.613-2.011c0.694-0.596,1.165-1.267,1.401-1.995c0.231-0.719,0.345-1.789,0.345-3.271v-9.748
		c0-1.026,0.057-1.793,0.17-2.281c0.108-0.459,0.306-0.842,0.589-1.135c0.26-0.268,0.557-0.465,0.882-0.584
		c0.339-0.124,0.794-0.203,1.353-0.23l0.25-0.015v-0.869h-7.649v0.869l0.25,0.015c0.559,0.028,1.013,0.106,1.353,0.23
		c0.325,0.119,0.622,0.316,0.882,0.585c0.284,0.292,0.482,0.672,0.589,1.127c0.114,0.483,0.17,1.253,0.17,2.288v8.636
		c0,1.56-0.021,2.559-0.061,2.973c-0.059,0.616-0.179,1.128-0.356,1.522c-0.174,0.387-0.452,0.751-0.822,1.085
		c-0.62,0.549-1.408,0.987-2.342,1.298c-0.941,0.314-1.945,0.473-2.982,0.473c-1.056,0-1.937-0.175-2.624-0.521
		c-0.677-0.341-1.258-0.904-1.725-1.67c-0.31-0.504-0.519-1.063-0.621-1.66c-0.105-0.616-0.158-1.638-0.158-3.038v-8.743
		c0-1.232,0.053-2.109,0.156-2.603c0.098-0.464,0.301-0.856,0.607-1.172c0.249-0.267,0.541-0.462,0.871-0.581
		c0.344-0.125,0.801-0.204,1.36-0.231l0.25-0.015v-0.869H48.661v0.869l0.25,0.015c0.569,0.028,1.029,0.106,1.369,0.23
		c0.324,0.119,0.614,0.314,0.869,0.588c0.292,0.292,0.492,0.669,0.593,1.123c0.108,0.482,0.163,1.254,0.163,2.29v9.377
		c0,1.208,0.032,2.022,0.096,2.492c0.182,1.336,0.752,2.431,1.692,3.25C55.116,41.709,57.342,42.35,60.31,42.35z"/>
	<radialGradient id="SVGID_6_" cx="84.0601" cy="31.0181" r="11.0887" gradientUnits="userSpaceOnUse">
		<stop  offset="0.1798" style="stop-color:#F4E8D9"/>
		<stop  offset="0.5899" style="stop-color:#EDD089"/>
		<stop  offset="1" style="stop-color:#C08329"/>
	</radialGradient>
	<path fill="url(#SVGID_6_)" stroke="#6C5A0B" stroke-width="0.4" stroke-miterlimit="10" d="M88.334,41.464
		c1.756-0.327,3.243-1.107,4.419-2.315c0.835-0.857,1.497-1.946,1.965-3.238c0.467-1.284,0.704-2.668,0.704-4.113
		c0-1.978-0.414-3.833-1.232-5.515c-0.818-1.685-1.98-3.068-3.453-4.108c-1.545-1.094-3.451-1.734-5.661-1.901
		c-0.527-0.042-1.71-0.063-3.62-0.063h-8.76v0.869l0.25,0.015c0.916,0.047,1.612,0.266,2.069,0.647
		c0.363,0.307,0.6,0.688,0.726,1.164c0.133,0.5,0.2,1.316,0.2,2.42V36.71c0,1.026-0.057,1.793-0.17,2.281
		c-0.108,0.459-0.306,0.842-0.589,1.135c-0.26,0.268-0.555,0.465-0.875,0.584c-0.333,0.124-0.792,0.202-1.36,0.23l-0.25,0.014v0.87
		h11.68C85.716,41.825,87.047,41.704,88.334,41.464z M88.655,24.196c0.799,0.959,1.423,2.095,1.853,3.376
		c0.432,1.284,0.65,2.659,0.65,4.087c0,1.284-0.181,2.514-0.535,3.652c-0.356,1.132-0.878,2.152-1.558,3.031
		c-0.681,0.898-1.461,1.556-2.318,1.952c-0.863,0.398-1.92,0.6-3.141,0.6c-1.393,0-2.406-0.373-3.011-1.109
		c-0.279-0.336-0.474-0.751-0.578-1.23c-0.108-0.505-0.164-1.26-0.164-2.247V21.217h1.605c1.31,0,2.398,0.116,3.235,0.345
		C86.218,21.989,87.552,22.875,88.655,24.196z"/>
	<radialGradient id="SVGID_7_" cx="107.0161" cy="31.0181" r="10.994" gradientUnits="userSpaceOnUse">
		<stop  offset="0.1798" style="stop-color:#F4E8D9"/>
		<stop  offset="0.5899" style="stop-color:#EDD089"/>
		<stop  offset="1" style="stop-color:#C08329"/>
	</radialGradient>
	<path fill="url(#SVGID_7_)" stroke="#6C5A0B" stroke-width="0.4" stroke-miterlimit="10" d="M97.122,21.21
		c0.23,0.055,0.465,0.154,0.703,0.297c0.467,0.267,0.958,0.779,1.456,1.521l4.711,7.091c0.592,0.892,0.988,1.641,1.175,2.225
		c0.165,0.496,0.249,0.951,0.249,1.352l-0.015,3.013c0,1.036-0.056,1.807-0.163,2.29c-0.103,0.456-0.298,0.833-0.582,1.127
		c-0.258,0.268-0.559,0.465-0.889,0.583c-0.344,0.125-0.802,0.204-1.361,0.232l-0.25,0.014v0.87h10.399v-0.884h-0.265
		c-0.969,0-1.722-0.272-2.236-0.816c-0.292-0.302-0.491-0.673-0.588-1.102c-0.104-0.459-0.155-1.236-0.155-2.313v-3.784
		c0-0.681,0.042-1.165,0.127-1.436c0.085-0.274,0.334-0.724,0.74-1.34l3.523-5.376c0.839-1.285,1.612-2.261,2.289-2.899
		c0.274-0.246,0.546-0.425,0.805-0.532c0.264-0.108,0.656-0.193,1.165-0.252l0.234-0.025v-0.855h-7.634v0.883h0.264
		c0.694,0,1.235,0.161,1.605,0.478c0.365,0.31,0.541,0.746,0.541,1.329c0,0.522-0.177,1.067-0.531,1.619l-3.763,5.878l-3.964-6.203
		c-0.279-0.439-0.484-0.806-0.605-1.09c-0.114-0.264-0.171-0.5-0.171-0.699c0-0.546,0.224-0.896,0.707-1.103
		c0.141-0.062,0.526-0.149,1.547-0.211l0.248-0.014v-0.868h-10.6v0.871l0.252,0.012C96.534,21.113,96.882,21.152,97.122,21.21z"/>
	<radialGradient id="SVGID_8_" cx="121.0625" cy="24.0088" r="3.5763" gradientUnits="userSpaceOnUse">
		<stop  offset="0.1798" style="stop-color:#F4E8D9"/>
		<stop  offset="0.5899" style="stop-color:#EDD089"/>
		<stop  offset="1" style="stop-color:#C08329"/>
	</radialGradient>
	<path fill="url(#SVGID_8_)" stroke="#6C5A0B" stroke-width="0.4" stroke-miterlimit="10" d="M119.004,28.302
		c0.922-0.193,1.744-0.574,2.441-1.132c0.667-0.528,1.209-1.21,1.61-2.03c0.402-0.82,0.607-1.662,0.607-2.502
		c0-0.869-0.211-1.583-0.627-2.123c-0.431-0.56-1.005-0.844-1.707-0.844c-0.577,0-1.076,0.213-1.487,0.636
		c-0.408,0.42-0.616,0.93-0.616,1.512c0,0.609,0.211,1.114,0.626,1.499c0.409,0.379,0.938,0.573,1.569,0.573
		c0.126,0,0.263-0.016,0.411-0.045c-0.103,0.542-0.322,1.104-0.655,1.674c-0.26,0.453-0.575,0.828-0.939,1.113
		c-0.371,0.293-0.884,0.577-1.529,0.845l-0.246,0.102l0.329,0.769L119.004,28.302z"/>
	<radialGradient id="SVGID_9_" cx="133.2227" cy="31.0103" r="9.4346" gradientUnits="userSpaceOnUse">
		<stop  offset="0.1798" style="stop-color:#F4E8D9"/>
		<stop  offset="0.5899" style="stop-color:#EDD089"/>
		<stop  offset="1" style="stop-color:#C08329"/>
	</radialGradient>
	<path fill="url(#SVGID_9_)" stroke="#6C5A0B" stroke-width="0.4" stroke-miterlimit="10" d="M135.214,29.004l-2.177-1.051
		c-2.13-1.012-3.166-2.295-3.166-3.923c0-0.399,0.075-0.805,0.223-1.207c0.146-0.398,0.35-0.751,0.609-1.049
		c0.621-0.728,1.448-1.082,2.528-1.082c0.737,0,1.396,0.18,1.955,0.538c0.572,0.364,1.105,0.936,1.584,1.702
		c0.266,0.422,0.498,0.894,0.694,1.4c0.196,0.508,0.428,1.235,0.709,2.224l0.054,0.191h0.823l-0.117-6.66h-0.823l-0.048,0.203
		c-0.136,0.584-0.377,0.584-0.469,0.584c-0.118,0-0.257-0.024-0.417-0.073c-0.178-0.054-0.524-0.184-1.026-0.385
		c-0.699-0.292-1.269-0.491-1.694-0.592c-0.43-0.103-0.902-0.154-1.405-0.154c-1.554,0-2.92,0.533-4.055,1.583
		c-0.643,0.588-1.15,1.305-1.509,2.128c-0.358,0.822-0.54,1.69-0.54,2.577c0,1.452,0.471,2.702,1.398,3.715
		c0.333,0.364,0.772,0.727,1.309,1.077c0.525,0.344,1.291,0.77,2.272,1.265c1.096,0.559,1.92,1.027,2.45,1.39
		c0.514,0.352,0.917,0.722,1.195,1.096c0.271,0.368,0.488,0.814,0.648,1.329c0.163,0.517,0.243,1.033,0.243,1.528
		c0,1.155-0.354,2.08-1.083,2.829c-0.728,0.747-1.626,1.109-2.746,1.109c-1.62,0-2.931-0.806-4.01-2.468
		c-0.581-0.908-1.09-2.173-1.513-3.762l-0.05-0.187l-0.821-0.037l-0.05,6.92h0.803l0.064-0.171c0.146-0.388,0.392-0.569,0.773-0.569
		c0.124,0,0.238,0.014,0.333,0.047c0.08,0.027,0.338,0.13,1.122,0.471c1.254,0.537,2.578,0.81,3.936,0.81
		c1.494,0,2.813-0.342,3.921-1.017c1.113-0.676,1.958-1.652,2.514-2.901c0.395-0.892,0.595-1.841,0.595-2.818
		c0-1.475-0.445-2.789-1.32-3.905C138.17,30.723,136.918,29.813,135.214,29.004z"/>
	<radialGradient id="SVGID_10_" cx="59.9917" cy="71.2734" r="10.4714" gradientUnits="userSpaceOnUse">
		<stop  offset="0.1798" style="stop-color:#F4E8D9"/>
		<stop  offset="0.5899" style="stop-color:#EDD089"/>
		<stop  offset="1" style="stop-color:#C08329"/>
	</radialGradient>
	<path fill="url(#SVGID_10_)" stroke="#6C5A0B" stroke-width="0.4" stroke-miterlimit="10" d="M56.607,59.135l0.243,0.02
		c0.958,0.077,1.723,0.408,2.275,0.99c0.34,0.339,0.565,0.82,0.668,1.435c0.09,0.507,0.135,1.084,0.135,1.715v13.671
		c0,2.331-0.126,3.921-0.373,4.723c-0.181,0.56-0.437,0.989-0.765,1.273c-0.318,0.278-0.684,0.413-1.116,0.413
		c-0.322,0-0.572-0.074-0.762-0.228c-0.2-0.16-0.38-0.443-0.537-0.839c-0.19-0.497-0.331-0.833-0.429-1.022
		c-0.104-0.205-0.23-0.379-0.375-0.525c-0.308-0.296-0.687-0.444-1.125-0.444c-0.452,0-0.826,0.146-1.114,0.432
		c-0.287,0.287-0.432,0.657-0.432,1.097c0,0.714,0.349,1.288,1.035,1.708c0.354,0.22,0.823,0.398,1.396,0.528
		c0.563,0.128,1.148,0.192,1.742,0.192c0.994,0,1.979-0.168,2.93-0.501c0.958-0.335,1.734-0.784,2.306-1.335
		c0.578-0.565,0.979-1.253,1.197-2.042c0.212-0.766,0.319-1.873,0.319-3.291V63.31c0-1.062,0.073-1.854,0.214-2.353
		c0.137-0.478,0.374-0.855,0.729-1.154c0.25-0.212,0.525-0.367,0.819-0.46c0.308-0.095,0.728-0.159,1.25-0.189l0.248-0.012v-0.87
		H56.607V59.135z"/>
	<radialGradient id="SVGID_11_" cx="77.436" cy="69.0796" r="10.2132" gradientUnits="userSpaceOnUse">
		<stop  offset="0.1798" style="stop-color:#F4E8D9"/>
		<stop  offset="0.5899" style="stop-color:#EDD089"/>
		<stop  offset="1" style="stop-color:#C08329"/>
	</radialGradient>
	<path fill="url(#SVGID_11_)" stroke="#6C5A0B" stroke-width="0.4" stroke-miterlimit="10" d="M86.134,73.405
		c-0.191,0.906-0.403,1.646-0.628,2.193c-0.221,0.541-0.51,1.025-0.865,1.45c-0.494,0.62-1.141,1.083-1.926,1.377
		c-0.801,0.302-1.814,0.455-3.012,0.455c-1.129,0-2.044-0.165-2.72-0.49c-0.666-0.322-1.148-0.813-1.476-1.506
		c-0.193-0.405-0.324-0.919-0.392-1.532c-0.071-0.63-0.107-1.658-0.107-3.052v-3.273h0.617c0.731,0,1.338,0.074,1.806,0.218
		c0.448,0.142,0.815,0.361,1.092,0.655c0.293,0.313,0.526,0.7,0.694,1.148c0.172,0.462,0.305,1.086,0.396,1.855l0.026,0.233h0.852
		l0.065-8.797l-0.854-0.036l-0.028,0.243c-0.09,0.771-0.204,1.358-0.336,1.746c-0.125,0.368-0.32,0.691-0.584,0.963
		c-0.263,0.28-0.609,0.479-1.032,0.589c-0.45,0.117-1.14,0.176-2.05,0.176h-0.663v-8.74h3.273c1.067,0,1.931,0.073,2.568,0.217
		c0.62,0.14,1.164,0.382,1.617,0.719c0.552,0.406,0.979,0.883,1.268,1.412c0.294,0.537,0.507,1.231,0.636,2.061l0.036,0.234
		l0.856-0.037l-0.288-5.614H67.853v0.87l0.25,0.014c0.569,0.028,1.028,0.107,1.368,0.23c0.325,0.12,0.614,0.314,0.867,0.585
		c0.285,0.292,0.481,0.674,0.588,1.135c0.114,0.488,0.171,1.254,0.171,2.28v11.384c0,1.027-0.057,1.794-0.171,2.282
		c-0.107,0.46-0.304,0.842-0.588,1.136c-0.26,0.268-0.557,0.465-0.882,0.584c-0.34,0.125-0.794,0.203-1.353,0.232l-0.25,0.013v0.869
		h18.948l0.217-6.664l-0.839-0.037L86.134,73.405z"/>
	<radialGradient id="SVGID_12_" cx="113.1279" cy="69.0796" r="20.4632" gradientUnits="userSpaceOnUse">
		<stop  offset="0.1798" style="stop-color:#F4E8D9"/>
		<stop  offset="0.5899" style="stop-color:#EDD089"/>
		<stop  offset="1" style="stop-color:#C08329"/>
	</radialGradient>
	<path fill="url(#SVGID_12_)" stroke="#6C5A0B" stroke-width="0.4" stroke-miterlimit="10" d="M139.089,73.405
		c-0.192,0.906-0.403,1.646-0.628,2.193c-0.221,0.541-0.51,1.025-0.865,1.45c-0.493,0.62-1.141,1.083-1.926,1.377
		c-0.8,0.302-1.813,0.455-3.012,0.455c-1.128,0-2.044-0.165-2.719-0.49c-0.666-0.322-1.148-0.813-1.476-1.506
		c-0.193-0.405-0.324-0.919-0.393-1.532c-0.071-0.63-0.107-1.658-0.107-3.052v-3.273h0.616c0.731,0,1.339,0.074,1.807,0.218
		c0.448,0.142,0.814,0.361,1.091,0.655c0.293,0.313,0.526,0.7,0.693,1.148c0.173,0.462,0.306,1.086,0.395,1.855l0.028,0.233h0.851
		l0.066-8.797l-0.854-0.036l-0.029,0.243c-0.091,0.771-0.204,1.358-0.336,1.746c-0.125,0.368-0.321,0.691-0.584,0.963
		c-0.263,0.28-0.608,0.479-1.033,0.589c-0.45,0.117-1.14,0.176-2.049,0.176h-0.663v-8.74h3.272c1.068,0,1.933,0.073,2.569,0.217
		c0.619,0.14,1.163,0.382,1.617,0.719c0.552,0.406,0.979,0.883,1.268,1.412c0.294,0.537,0.508,1.231,0.636,2.061l0.036,0.234
		l0.857-0.037l-0.289-5.614h-16.825h-0.295h-7.385v0.883h0.264c0.699,0,1.218,0.101,1.543,0.3c0.53,0.333,0.788,0.896,0.788,1.722
		c0,0.837-0.325,2.051-0.97,3.608l-3.969,9.746l-3.583-11.547c-0.278-0.887-0.419-1.51-0.419-1.852c0-0.354,0.085-0.689,0.252-0.993
		c0.167-0.303,0.388-0.538,0.649-0.694c0.207-0.117,0.434-0.194,0.674-0.23c0.257-0.041,0.689-0.06,1.281-0.06h0.264v-0.883H99.737
		v0.883h0.265c0.504,0,0.921,0.052,1.238,0.157c0.304,0.099,0.578,0.271,0.814,0.507c0.252,0.25,0.457,0.585,0.614,0.996
		c0.156,0.416,0.236,0.851,0.236,1.289c0,0.608-0.214,1.557-0.635,2.822l-3.128,9.441l-4.535-11.083l-0.403-0.96
		c-0.313-0.727-0.473-1.294-0.473-1.688c0-0.301,0.072-0.564,0.222-0.801c0.148-0.235,0.333-0.399,0.556-0.499
		c0.204-0.083,0.673-0.181,1.755-0.181h0.264v-0.883H86.282v0.862l0.244,0.02c0.508,0.04,0.904,0.095,1.176,0.163
		c0.258,0.065,0.5,0.171,0.726,0.322c0.275,0.173,0.513,0.418,0.707,0.723c0.207,0.325,0.471,0.868,0.782,1.611l7.369,17.751
		l0.067,0.162h1.061l5.386-15.889l5.311,15.889h0.999l6.417-15.549c0.761-1.858,1.401-3.154,1.902-3.858
		c0.324-0.469,0.65-0.792,0.966-0.962c0.324-0.172,0.818-0.295,1.47-0.363l0.058-0.006l0.134,0.008
		c0.569,0.028,1.028,0.107,1.368,0.23c0.324,0.12,0.613,0.314,0.866,0.585c0.285,0.292,0.481,0.674,0.588,1.135
		c0.115,0.488,0.171,1.254,0.171,2.28v11.384c0,1.027-0.057,1.794-0.171,2.282c-0.107,0.46-0.304,0.842-0.588,1.136
		c-0.26,0.268-0.557,0.465-0.881,0.584c-0.341,0.125-0.795,0.203-1.353,0.232l-0.25,0.013v0.869h18.947l0.217-6.664l-0.839-0.037
		L139.089,73.405z"/>
	<radialGradient id="SVGID_13_" cx="150.1099" cy="69.0796" r="10.2171" gradientUnits="userSpaceOnUse">
		<stop  offset="0.1798" style="stop-color:#F4E8D9"/>
		<stop  offset="0.5899" style="stop-color:#EDD089"/>
		<stop  offset="1" style="stop-color:#C08329"/>
	</radialGradient>
	<path fill="url(#SVGID_13_)" stroke="#6C5A0B" stroke-width="0.4" stroke-miterlimit="10" d="M158.8,73.206
		c-0.192,0.939-0.403,1.703-0.628,2.274c-0.222,0.561-0.507,1.068-0.849,1.508c-0.503,0.639-1.16,1.119-1.951,1.423
		c-0.804,0.313-1.815,0.469-3.002,0.469c-1.128,0-2.04-0.165-2.713-0.49c-0.652-0.316-1.152-0.825-1.484-1.509
		c-0.191-0.392-0.323-0.914-0.39-1.55c-0.072-0.656-0.107-1.676-0.107-3.03v-8.914c0-1.055,0.059-1.84,0.177-2.332
		c0.111-0.464,0.325-0.853,0.638-1.154c0.248-0.24,0.539-0.416,0.86-0.527c0.335-0.116,0.78-0.189,1.319-0.219l0.25-0.012v-0.87
		h-10.399v0.872l0.254,0.011c0.528,0.019,0.962,0.087,1.29,0.201c0.32,0.112,0.614,0.291,0.873,0.531
		c0.31,0.293,0.526,0.678,0.642,1.145c0.123,0.498,0.185,1.291,0.185,2.354v11.384c0,1.027-0.057,1.794-0.171,2.282
		c-0.107,0.46-0.304,0.842-0.588,1.136c-0.513,0.53-1.259,0.799-2.221,0.799h-0.265v0.898h18.964l0.217-6.839l-0.854-0.071
		L158.8,73.206z"/>
	<radialGradient id="SVGID_14_" cx="173.1206" cy="72.584" r="15.5529" gradientUnits="userSpaceOnUse">
		<stop  offset="0.1798" style="stop-color:#F4E8D9"/>
		<stop  offset="0.5899" style="stop-color:#EDD089"/>
		<stop  offset="1" style="stop-color:#C08329"/>
	</radialGradient>
	<path fill="url(#SVGID_14_)" stroke="#6C5A0B" stroke-width="0.4" stroke-miterlimit="10" d="M182.499,73.859
		c-1.252-1.623-3.316-3.122-6.136-4.458l-3.625-1.754c-3.569-1.695-5.377-3.947-5.377-6.695c0-0.686,0.129-1.384,0.381-2.071
		c0.254-0.688,0.605-1.294,1.046-1.802c1.058-1.238,2.52-1.866,4.349-1.866c1.263,0,2.39,0.31,3.354,0.924
		c0.973,0.619,1.878,1.591,2.693,2.891c0.454,0.725,0.85,1.521,1.174,2.361c0.332,0.865,0.73,2.118,1.187,3.725l0.055,0.191h1.059
		l-0.189-10.749h-1.06l-0.048,0.204c-0.261,1.108-0.782,1.108-0.954,1.108c-0.215,0-0.465-0.043-0.746-0.13
		c-0.298-0.09-0.881-0.31-1.726-0.647c-1.156-0.484-2.098-0.814-2.796-0.979c-0.707-0.167-1.48-0.252-2.3-0.252
		c-2.545,0-4.78,0.873-6.641,2.593c-1.051,0.965-1.882,2.139-2.471,3.488c-0.587,1.348-0.884,2.769-0.884,4.225
		c0,2.374,0.768,4.416,2.283,6.073c0.541,0.594,1.263,1.189,2.149,1.768c0.87,0.57,2.139,1.275,3.77,2.099
		c1.84,0.939,3.22,1.721,4.104,2.327c0.873,0.597,1.558,1.227,2.035,1.87c0.461,0.625,0.833,1.387,1.106,2.265
		c0.274,0.879,0.414,1.753,0.414,2.599c0,1.945-0.625,3.573-1.856,4.836c-1.23,1.264-2.813,1.903-4.703,1.903
		c-2.724,0-5.023-1.412-6.832-4.193c-0.977-1.53-1.832-3.656-2.542-6.322l-0.05-0.187l-1.058-0.047l-0.081,11.173h1.04l0.065-0.17
		c0.268-0.718,0.744-1.065,1.452-1.065c0.23,0,0.435,0.03,0.611,0.088c0.141,0.048,0.583,0.224,1.886,0.791
		c2.067,0.886,4.249,1.335,6.488,1.335c2.459,0,4.626-0.562,6.446-1.668c1.825-1.113,3.211-2.712,4.119-4.755
		c0.648-1.468,0.976-3.024,0.976-4.627C184.662,77.837,183.933,75.685,182.499,73.859z"/>
</g>
<g>
	<path fill="#FAC926" d="M28.89,3.798l0.243,0.019c1.812,0.146,3.259,0.776,4.309,1.878c0.656,0.655,1.088,1.578,1.286,2.749
		c0.167,0.942,0.251,2.013,0.251,3.182v25.064c0,4.293-0.234,7.231-0.695,8.727c-0.342,1.063-0.835,1.881-1.466,2.431
		c-0.627,0.548-1.344,0.813-2.191,0.813c-0.633,0-1.149-0.156-1.535-0.467c-0.394-0.315-0.748-0.864-1.052-1.629
		c-0.338-0.886-0.6-1.509-0.776-1.854c-0.182-0.353-0.397-0.655-0.646-0.904c-0.521-0.499-1.163-0.753-1.911-0.753
		c-0.768,0-1.401,0.246-1.886,0.729c-0.482,0.485-0.729,1.11-0.729,1.858c0,1.225,0.605,2.215,1.794,2.942
		c0.625,0.392,1.464,0.707,2.49,0.94c1.015,0.229,2.074,0.345,3.145,0.345c1.791,0,3.574-0.305,5.298-0.905
		c1.729-0.608,3.124-1.414,4.146-2.399c1.029-1.008,1.749-2.234,2.137-3.645c0.382-1.386,0.577-3.395,0.577-5.974V11.654
		c0-1.969,0.135-3.44,0.4-4.374c0.256-0.906,0.729-1.653,1.404-2.222c0.48-0.411,1.012-0.708,1.578-0.883
		c0.583-0.183,1.373-0.302,2.344-0.358l0.249-0.013V2.639H28.89V3.798z"/>
	<path fill="#FAC926" d="M60.31,42.35c2.842,0,5.068-0.677,6.613-2.011c0.694-0.596,1.165-1.267,1.401-1.995
		c0.231-0.719,0.345-1.789,0.345-3.271v-9.748c0-1.026,0.057-1.793,0.17-2.281c0.108-0.459,0.306-0.842,0.589-1.135
		c0.26-0.268,0.557-0.465,0.882-0.584c0.339-0.124,0.794-0.203,1.353-0.23l0.25-0.015v-0.869h-7.649v0.869l0.25,0.015
		c0.559,0.028,1.013,0.106,1.353,0.23c0.325,0.119,0.622,0.316,0.882,0.585c0.284,0.292,0.482,0.672,0.589,1.127
		c0.114,0.483,0.17,1.253,0.17,2.288v8.636c0,1.56-0.021,2.559-0.061,2.973c-0.059,0.616-0.179,1.128-0.356,1.522
		c-0.174,0.387-0.452,0.751-0.822,1.085c-0.62,0.549-1.408,0.987-2.342,1.298c-0.941,0.314-1.945,0.473-2.982,0.473
		c-1.056,0-1.937-0.175-2.624-0.521c-0.677-0.341-1.258-0.904-1.725-1.67c-0.31-0.504-0.519-1.063-0.621-1.66
		c-0.105-0.616-0.158-1.638-0.158-3.038v-8.743c0-1.232,0.053-2.109,0.156-2.603c0.098-0.464,0.301-0.856,0.607-1.172
		c0.249-0.267,0.541-0.462,0.871-0.581c0.344-0.125,0.801-0.204,1.36-0.231l0.25-0.015v-0.869H48.661v0.869l0.25,0.015
		c0.569,0.028,1.029,0.106,1.369,0.23c0.324,0.119,0.614,0.314,0.869,0.588c0.292,0.292,0.492,0.669,0.593,1.123
		c0.108,0.482,0.163,1.254,0.163,2.29v9.377c0,1.208,0.032,2.022,0.096,2.492c0.182,1.336,0.752,2.431,1.692,3.25
		C55.116,41.709,57.342,42.35,60.31,42.35z"/>
	<path fill="#FAC926" d="M88.334,41.464c1.756-0.327,3.243-1.107,4.419-2.315c0.835-0.857,1.497-1.946,1.965-3.238
		c0.467-1.284,0.704-2.668,0.704-4.113c0-1.978-0.414-3.833-1.232-5.515c-0.818-1.685-1.98-3.068-3.453-4.108
		c-1.545-1.094-3.451-1.734-5.661-1.901c-0.527-0.042-1.71-0.063-3.62-0.063h-8.76v0.869l0.25,0.015
		c0.916,0.047,1.612,0.266,2.069,0.647c0.363,0.307,0.6,0.688,0.726,1.164c0.133,0.5,0.2,1.316,0.2,2.42V36.71
		c0,1.026-0.057,1.793-0.17,2.281c-0.108,0.459-0.306,0.842-0.589,1.135c-0.26,0.268-0.555,0.465-0.875,0.584
		c-0.333,0.124-0.792,0.202-1.36,0.23l-0.25,0.014v0.87h11.68C85.716,41.825,87.047,41.704,88.334,41.464z M88.655,24.196
		c0.799,0.959,1.423,2.095,1.853,3.376c0.432,1.284,0.65,2.659,0.65,4.087c0,1.284-0.181,2.514-0.535,3.652
		c-0.356,1.132-0.878,2.152-1.558,3.031c-0.681,0.898-1.461,1.556-2.318,1.952c-0.863,0.398-1.92,0.6-3.141,0.6
		c-1.393,0-2.406-0.373-3.011-1.109c-0.279-0.336-0.474-0.751-0.578-1.23c-0.108-0.505-0.164-1.26-0.164-2.247V21.217h1.605
		c1.31,0,2.398,0.116,3.235,0.345C86.218,21.989,87.552,22.875,88.655,24.196z"/>
	<path fill="#FAC926" d="M97.122,21.21c0.23,0.055,0.465,0.154,0.703,0.297c0.467,0.267,0.958,0.779,1.456,1.521l4.711,7.091
		c0.592,0.892,0.988,1.641,1.175,2.225c0.165,0.496,0.249,0.951,0.249,1.352l-0.015,3.013c0,1.036-0.056,1.807-0.163,2.29
		c-0.103,0.456-0.298,0.833-0.582,1.127c-0.258,0.268-0.559,0.465-0.889,0.583c-0.344,0.125-0.802,0.204-1.361,0.232l-0.25,0.014
		v0.87h10.399v-0.884h-0.265c-0.969,0-1.722-0.272-2.236-0.816c-0.292-0.302-0.491-0.673-0.588-1.102
		c-0.104-0.459-0.155-1.236-0.155-2.313v-3.784c0-0.681,0.042-1.165,0.127-1.436c0.085-0.274,0.334-0.724,0.74-1.34l3.523-5.376
		c0.839-1.285,1.612-2.261,2.289-2.899c0.274-0.246,0.546-0.425,0.805-0.532c0.264-0.108,0.656-0.193,1.165-0.252l0.234-0.025
		v-0.855h-7.634v0.883h0.264c0.694,0,1.235,0.161,1.605,0.478c0.365,0.31,0.541,0.746,0.541,1.329c0,0.522-0.177,1.067-0.531,1.619
		l-3.763,5.878l-3.964-6.203c-0.279-0.439-0.484-0.806-0.605-1.09c-0.114-0.264-0.171-0.5-0.171-0.699
		c0-0.546,0.224-0.896,0.707-1.103c0.141-0.062,0.526-0.149,1.547-0.211l0.248-0.014v-0.868h-10.6v0.871l0.252,0.012
		C96.534,21.113,96.882,21.152,97.122,21.21z"/>
	<path fill="#FAC926" d="M119.004,28.302c0.922-0.193,1.744-0.574,2.441-1.132c0.667-0.528,1.209-1.21,1.61-2.03
		c0.402-0.82,0.607-1.662,0.607-2.502c0-0.869-0.211-1.583-0.627-2.123c-0.431-0.56-1.005-0.844-1.707-0.844
		c-0.577,0-1.076,0.213-1.487,0.636c-0.408,0.42-0.616,0.93-0.616,1.512c0,0.609,0.211,1.114,0.626,1.499
		c0.409,0.379,0.938,0.573,1.569,0.573c0.126,0,0.263-0.016,0.411-0.045c-0.103,0.542-0.322,1.104-0.655,1.674
		c-0.26,0.453-0.575,0.828-0.939,1.113c-0.371,0.293-0.884,0.577-1.529,0.845l-0.246,0.102l0.329,0.769L119.004,28.302z"/>
	<path fill="#FAC926" d="M135.214,29.004l-2.177-1.051c-2.13-1.012-3.166-2.295-3.166-3.923c0-0.399,0.075-0.805,0.223-1.207
		c0.146-0.398,0.35-0.751,0.609-1.049c0.621-0.728,1.448-1.082,2.528-1.082c0.737,0,1.396,0.18,1.955,0.538
		c0.572,0.364,1.105,0.936,1.584,1.702c0.266,0.422,0.498,0.894,0.694,1.4c0.196,0.508,0.428,1.235,0.709,2.224l0.054,0.191h0.823
		l-0.117-6.66h-0.823l-0.048,0.203c-0.136,0.584-0.377,0.584-0.469,0.584c-0.118,0-0.257-0.024-0.417-0.073
		c-0.178-0.054-0.524-0.184-1.026-0.385c-0.699-0.292-1.269-0.491-1.694-0.592c-0.43-0.103-0.902-0.154-1.405-0.154
		c-1.554,0-2.92,0.533-4.055,1.583c-0.643,0.588-1.15,1.305-1.509,2.128c-0.358,0.822-0.54,1.69-0.54,2.577
		c0,1.452,0.471,2.702,1.398,3.715c0.333,0.364,0.772,0.727,1.309,1.077c0.525,0.344,1.291,0.77,2.272,1.265
		c1.096,0.559,1.92,1.027,2.45,1.39c0.514,0.352,0.917,0.722,1.195,1.096c0.271,0.368,0.488,0.814,0.648,1.329
		c0.163,0.517,0.243,1.033,0.243,1.528c0,1.155-0.354,2.08-1.083,2.829c-0.728,0.747-1.626,1.109-2.746,1.109
		c-1.62,0-2.931-0.806-4.01-2.468c-0.581-0.908-1.09-2.173-1.513-3.762l-0.05-0.187l-0.821-0.037l-0.05,6.92h0.803l0.064-0.171
		c0.146-0.388,0.392-0.569,0.773-0.569c0.124,0,0.238,0.014,0.333,0.047c0.08,0.027,0.338,0.13,1.122,0.471
		c1.254,0.537,2.578,0.81,3.936,0.81c1.494,0,2.813-0.342,3.921-1.017c1.113-0.676,1.958-1.652,2.514-2.901
		c0.395-0.892,0.595-1.841,0.595-2.818c0-1.475-0.445-2.789-1.32-3.905C138.17,30.723,136.918,29.813,135.214,29.004z"/>
	<path fill="#FAC926" d="M56.607,59.135l0.243,0.02c0.958,0.077,1.723,0.408,2.275,0.99c0.34,0.339,0.565,0.82,0.668,1.435
		c0.09,0.507,0.135,1.084,0.135,1.715v13.671c0,2.331-0.126,3.921-0.373,4.723c-0.181,0.56-0.437,0.989-0.765,1.273
		c-0.318,0.278-0.684,0.413-1.116,0.413c-0.322,0-0.572-0.074-0.762-0.228c-0.2-0.16-0.38-0.443-0.537-0.839
		c-0.19-0.497-0.331-0.833-0.429-1.022c-0.104-0.205-0.23-0.379-0.375-0.525c-0.308-0.296-0.687-0.444-1.125-0.444
		c-0.452,0-0.826,0.146-1.114,0.432c-0.287,0.287-0.432,0.657-0.432,1.097c0,0.714,0.349,1.288,1.035,1.708
		c0.354,0.22,0.823,0.398,1.396,0.528c0.563,0.128,1.148,0.192,1.742,0.192c0.994,0,1.979-0.168,2.93-0.501
		c0.958-0.335,1.734-0.784,2.306-1.335c0.578-0.565,0.979-1.253,1.197-2.042c0.212-0.766,0.319-1.873,0.319-3.291V63.31
		c0-1.062,0.073-1.854,0.214-2.353c0.137-0.478,0.374-0.855,0.729-1.154c0.25-0.212,0.525-0.367,0.819-0.46
		c0.308-0.095,0.728-0.159,1.25-0.189l0.248-0.012v-0.87H56.607V59.135z"/>
	<path fill="#FAC926" d="M86.134,73.405c-0.191,0.906-0.403,1.646-0.628,2.193c-0.221,0.541-0.51,1.025-0.865,1.45
		c-0.494,0.62-1.141,1.083-1.926,1.377c-0.801,0.302-1.814,0.455-3.012,0.455c-1.129,0-2.044-0.165-2.72-0.49
		c-0.666-0.322-1.148-0.813-1.476-1.506c-0.193-0.405-0.324-0.919-0.392-1.532c-0.071-0.63-0.107-1.658-0.107-3.052v-3.273h0.617
		c0.731,0,1.338,0.074,1.806,0.218c0.448,0.142,0.815,0.361,1.092,0.655c0.293,0.313,0.526,0.7,0.694,1.148
		c0.172,0.462,0.305,1.086,0.396,1.855l0.026,0.233h0.852l0.065-8.797l-0.854-0.036l-0.028,0.243
		c-0.09,0.771-0.204,1.358-0.336,1.746c-0.125,0.368-0.32,0.691-0.584,0.963c-0.263,0.28-0.609,0.479-1.032,0.589
		c-0.45,0.117-1.14,0.176-2.05,0.176h-0.663v-8.74h3.273c1.067,0,1.931,0.073,2.568,0.217c0.62,0.14,1.164,0.382,1.617,0.719
		c0.552,0.406,0.979,0.883,1.268,1.412c0.294,0.537,0.507,1.231,0.636,2.061l0.036,0.234l0.856-0.037l-0.288-5.614H67.853v0.87
		l0.25,0.014c0.569,0.028,1.028,0.107,1.368,0.23c0.325,0.12,0.614,0.314,0.867,0.585c0.285,0.292,0.481,0.674,0.588,1.135
		c0.114,0.488,0.171,1.254,0.171,2.28v11.384c0,1.027-0.057,1.794-0.171,2.282c-0.107,0.46-0.304,0.842-0.588,1.136
		c-0.26,0.268-0.557,0.465-0.882,0.584c-0.34,0.125-0.794,0.203-1.353,0.232l-0.25,0.013v0.869h18.948l0.217-6.664l-0.839-0.037
		L86.134,73.405z"/>
	<path fill="#FAC926" d="M139.089,73.405c-0.192,0.906-0.403,1.646-0.628,2.193c-0.221,0.541-0.51,1.025-0.865,1.45
		c-0.493,0.62-1.141,1.083-1.926,1.377c-0.8,0.302-1.813,0.455-3.012,0.455c-1.128,0-2.044-0.165-2.719-0.49
		c-0.666-0.322-1.148-0.813-1.476-1.506c-0.193-0.405-0.324-0.919-0.393-1.532c-0.071-0.63-0.107-1.658-0.107-3.052v-3.273h0.616
		c0.731,0,1.339,0.074,1.807,0.218c0.448,0.142,0.814,0.361,1.091,0.655c0.293,0.313,0.526,0.7,0.693,1.148
		c0.173,0.462,0.306,1.086,0.395,1.855l0.028,0.233h0.851l0.066-8.797l-0.854-0.036l-0.029,0.243
		c-0.091,0.771-0.204,1.358-0.336,1.746c-0.125,0.368-0.321,0.691-0.584,0.963c-0.263,0.28-0.608,0.479-1.033,0.589
		c-0.45,0.117-1.14,0.176-2.049,0.176h-0.663v-8.74h3.272c1.068,0,1.933,0.073,2.569,0.217c0.619,0.14,1.163,0.382,1.617,0.719
		c0.552,0.406,0.979,0.883,1.268,1.412c0.294,0.537,0.508,1.231,0.636,2.061l0.036,0.234l0.857-0.037l-0.289-5.614h-16.825h-0.295
		h-7.385v0.883h0.264c0.699,0,1.218,0.101,1.543,0.3c0.53,0.333,0.788,0.896,0.788,1.722c0,0.837-0.325,2.051-0.97,3.608
		l-3.969,9.746l-3.583-11.547c-0.278-0.887-0.419-1.51-0.419-1.852c0-0.354,0.085-0.689,0.252-0.993
		c0.167-0.303,0.388-0.538,0.649-0.694c0.207-0.117,0.434-0.194,0.674-0.23c0.257-0.041,0.689-0.06,1.281-0.06h0.264v-0.883H99.737
		v0.883h0.265c0.504,0,0.921,0.052,1.238,0.157c0.304,0.099,0.578,0.271,0.814,0.507c0.252,0.25,0.457,0.585,0.614,0.996
		c0.156,0.416,0.236,0.851,0.236,1.289c0,0.608-0.214,1.557-0.635,2.822l-3.128,9.441l-4.535-11.083l-0.403-0.96
		c-0.313-0.727-0.473-1.294-0.473-1.688c0-0.301,0.072-0.564,0.222-0.801c0.148-0.235,0.333-0.399,0.556-0.499
		c0.204-0.083,0.673-0.181,1.755-0.181h0.264v-0.883H86.282v0.862l0.244,0.02c0.508,0.04,0.904,0.095,1.176,0.163
		c0.258,0.065,0.5,0.171,0.726,0.322c0.275,0.173,0.513,0.418,0.707,0.723c0.207,0.325,0.471,0.868,0.782,1.611l7.369,17.751
		l0.067,0.162h1.061l5.386-15.889l5.311,15.889h0.999l6.417-15.549c0.761-1.858,1.401-3.154,1.902-3.858
		c0.324-0.469,0.65-0.792,0.966-0.962c0.324-0.172,0.818-0.295,1.47-0.363l0.058-0.006l0.134,0.008
		c0.569,0.028,1.028,0.107,1.368,0.23c0.324,0.12,0.613,0.314,0.866,0.585c0.285,0.292,0.481,0.674,0.588,1.135
		c0.115,0.488,0.171,1.254,0.171,2.28v11.384c0,1.027-0.057,1.794-0.171,2.282c-0.107,0.46-0.304,0.842-0.588,1.136
		c-0.26,0.268-0.557,0.465-0.881,0.584c-0.341,0.125-0.795,0.203-1.353,0.232l-0.25,0.013v0.869h18.947l0.217-6.664l-0.839-0.037
		L139.089,73.405z"/>
	<path fill="#FAC926" d="M158.8,73.206c-0.192,0.939-0.403,1.703-0.628,2.274c-0.222,0.561-0.507,1.068-0.849,1.508
		c-0.503,0.639-1.16,1.119-1.951,1.423c-0.804,0.313-1.815,0.469-3.002,0.469c-1.128,0-2.04-0.165-2.713-0.49
		c-0.652-0.316-1.152-0.825-1.484-1.509c-0.191-0.392-0.323-0.914-0.39-1.55c-0.072-0.656-0.107-1.676-0.107-3.03v-8.914
		c0-1.055,0.059-1.84,0.177-2.332c0.111-0.464,0.325-0.853,0.638-1.154c0.248-0.24,0.539-0.416,0.86-0.527
		c0.335-0.116,0.78-0.189,1.319-0.219l0.25-0.012v-0.87h-10.399v0.872l0.254,0.011c0.528,0.019,0.962,0.087,1.29,0.201
		c0.32,0.112,0.614,0.291,0.873,0.531c0.31,0.293,0.526,0.678,0.642,1.145c0.123,0.498,0.185,1.291,0.185,2.354v11.384
		c0,1.027-0.057,1.794-0.171,2.282c-0.107,0.46-0.304,0.842-0.588,1.136c-0.513,0.53-1.259,0.799-2.221,0.799h-0.265v0.898h18.964
		l0.217-6.839l-0.854-0.071L158.8,73.206z"/>
	<path fill="#FAC926" d="M182.499,73.859c-1.252-1.623-3.316-3.122-6.136-4.458l-3.625-1.754c-3.569-1.695-5.377-3.947-5.377-6.695
		c0-0.686,0.129-1.384,0.381-2.071c0.254-0.688,0.605-1.294,1.046-1.802c1.058-1.238,2.52-1.866,4.349-1.866
		c1.263,0,2.39,0.31,3.354,0.924c0.973,0.619,1.878,1.591,2.693,2.891c0.454,0.725,0.85,1.521,1.174,2.361
		c0.332,0.865,0.73,2.118,1.187,3.725l0.055,0.191h1.059l-0.189-10.749h-1.06l-0.048,0.204c-0.261,1.108-0.782,1.108-0.954,1.108
		c-0.215,0-0.465-0.043-0.746-0.13c-0.298-0.09-0.881-0.31-1.726-0.647c-1.156-0.484-2.098-0.814-2.796-0.979
		c-0.707-0.167-1.48-0.252-2.3-0.252c-2.545,0-4.78,0.873-6.641,2.593c-1.051,0.965-1.882,2.139-2.471,3.488
		c-0.587,1.348-0.884,2.769-0.884,4.225c0,2.374,0.768,4.416,2.283,6.073c0.541,0.594,1.263,1.189,2.149,1.768
		c0.87,0.57,2.139,1.275,3.77,2.099c1.84,0.939,3.22,1.721,4.104,2.327c0.873,0.597,1.558,1.227,2.035,1.87
		c0.461,0.625,0.833,1.387,1.106,2.265c0.274,0.879,0.414,1.753,0.414,2.599c0,1.945-0.625,3.573-1.856,4.836
		c-1.23,1.264-2.813,1.903-4.703,1.903c-2.724,0-5.023-1.412-6.832-4.193c-0.977-1.53-1.832-3.656-2.542-6.322l-0.05-0.187
		l-1.058-0.047l-0.081,11.173h1.04l0.065-0.17c0.268-0.718,0.744-1.065,1.452-1.065c0.23,0,0.435,0.03,0.611,0.088
		c0.141,0.048,0.583,0.224,1.886,0.791c2.067,0.886,4.249,1.335,6.488,1.335c2.459,0,4.626-0.562,6.446-1.668
		c1.825-1.113,3.211-2.712,4.119-4.755c0.648-1.468,0.976-3.024,0.976-4.627C184.662,77.837,183.933,75.685,182.499,73.859z"/>
</g>
<radialGradient id="SVGID_15_" cx="167.7905" cy="28.7891" r="17.3943" gradientTransform="matrix(0.9092 0.0344 -0.0378 0.9993 9.3516 -2.7091)" gradientUnits="userSpaceOnUse">
	<stop  offset="0" style="stop-color:#A6DFF6"/>
	<stop  offset="0.3794" style="stop-color:#7FC4D5"/>
	<stop  offset="1" style="stop-color:#369DA4"/>
</radialGradient>
<path fill="url(#SVGID_15_)" d="M177.728,32.477c-0.336,8.888-8.179,15.808-17.513,15.456c-9.337-0.354-16.634-7.847-16.297-16.736
	c0.337-8.888,8.178-15.809,17.515-15.455C170.768,16.096,178.064,23.588,177.728,32.477z"/>
<linearGradient id="SVGID_16_" gradientUnits="userSpaceOnUse" x1="162.9883" y1="18.8662" x2="157.7205" y2="25.1619" gradientTransform="matrix(0.9993 0.0378 -0.0378 0.9993 2.8449 -2.9548)">
	<stop  offset="0.0236" style="stop-color:#00859E"/>
	<stop  offset="0.1602" style="stop-color:#00839D"/>
	<stop  offset="0.2643" style="stop-color:#007E9A"/>
	<stop  offset="0.3577" style="stop-color:#007695"/>
	<stop  offset="0.4449" style="stop-color:#006C8E"/>
	<stop  offset="0.5277" style="stop-color:#005E85"/>
	<stop  offset="0.6072" style="stop-color:#004E7A"/>
	<stop  offset="0.6826" style="stop-color:#003C6F"/>
	<stop  offset="0.7547" style="stop-color:#002663"/>
</linearGradient>
<path fill="url(#SVGID_16_)" d="M167.729,25.713c-0.646,1.733-3.185,2.383-5.672,1.452c-2.487-0.931-3.979-3.084-3.333-4.816
	c0.648-1.731,3.187-2.376,5.674-1.45C166.885,21.828,168.375,23.983,167.729,25.713z"/>
<g>
	
		<linearGradient id="SVGID_17_" gradientUnits="userSpaceOnUse" x1="92.2324" y1="111.2417" x2="95.9736" y2="111.2417" gradientTransform="matrix(0.0196 -0.9998 0.9998 0.0196 -6.0486 181.8372)">
		<stop  offset="0" style="stop-color:#E5E2DF"/>
		<stop  offset="0" style="stop-color:#DED9D6"/>
		<stop  offset="0.0658" style="stop-color:#C8C9C7"/>
		<stop  offset="0.1914" style="stop-color:#97A1A3"/>
		<stop  offset="0.264" style="stop-color:#7A888D"/>
		<stop  offset="0.4011" style="stop-color:#ACB4B7"/>
		<stop  offset="0.5108" style="stop-color:#D1D3D4"/>
		<stop  offset="0.573" style="stop-color:#E0E0E0"/>
		<stop  offset="0.6313" style="stop-color:#D5D6D8"/>
		<stop  offset="0.7293" style="stop-color:#BBBEC2"/>
		<stop  offset="0.8545" style="stop-color:#92999F"/>
		<stop  offset="0.8764" style="stop-color:#8B9298"/>
		<stop  offset="1" style="stop-color:#D1D3D4"/>
		<stop  offset="1" style="stop-color:#A7A9AC"/>
	</linearGradient>
	<path fill="url(#SVGID_17_)" stroke="#939598" stroke-width="0.1" stroke-miterlimit="10" d="M83.104,87.593
		c5.296,0.106,37.446,0.823,43.912,1.089c23.424,0.957,24.37,2.119,24.37,2.119s-0.995,1.131-24.441,1.167
		c-6.465,0.012-38.616-0.529-43.915-0.634c-15.93-0.314-20.402-1.237-20.383-2.271C62.67,88.033,67.167,87.28,83.104,87.593z"/>
	
		<radialGradient id="SVGID_18_" cx="75.1348" cy="89.3394" r="0.8188" gradientTransform="matrix(0.0315 -0.9995 7.7579 0.2442 -620.3129 142.6194)" gradientUnits="userSpaceOnUse">
		<stop  offset="0.7358" style="stop-color:#FFFFFF"/>
		<stop  offset="0.7648" style="stop-color:#F8F8F8"/>
		<stop  offset="0.8015" style="stop-color:#EAEBEC"/>
		<stop  offset="0.8422" style="stop-color:#D5D6D7"/>
		<stop  offset="0.886" style="stop-color:#B6B8BB"/>
		<stop  offset="0.9321" style="stop-color:#929496"/>
		<stop  offset="0.9796" style="stop-color:#68696B"/>
		<stop  offset="1" style="stop-color:#515254"/>
	</radialGradient>
	<path fill="url(#SVGID_18_)" d="M75.066,88.434c3.408,0.067,6.16,0.54,6.152,1.055c-0.013,0.518-2.778,0.882-6.191,0.815
		c-3.409-0.068-6.159-0.537-6.148-1.056C68.888,88.729,71.657,88.369,75.066,88.434z"/>
</g>
<g>
	
		<linearGradient id="SVGID_19_" gradientUnits="userSpaceOnUse" x1="27.2515" y1="78.6616" x2="59.8188" y2="78.6616" gradientTransform="matrix(0.8103 -0.586 0.586 0.8103 -48.236 33.4939)">
		<stop  offset="0.0056" style="stop-color:#7DA7D9"/>
		<stop  offset="0.073" style="stop-color:#35517D"/>
		<stop  offset="0.5" style="stop-color:#DEE6F5"/>
		<stop  offset="0.618" style="stop-color:#BACDEA"/>
		<stop  offset="0.6648" style="stop-color:#B6CBE9"/>
		<stop  offset="0.7114" style="stop-color:#ABC3E6"/>
		<stop  offset="0.7578" style="stop-color:#98B7E0"/>
		<stop  offset="0.804" style="stop-color:#7DA7D9"/>
		<stop  offset="0.809" style="stop-color:#7AA5D8"/>
		<stop  offset="1" style="stop-color:#174D6B"/>
	</linearGradient>
	<path fill-rule="evenodd" clip-rule="evenodd" fill="url(#SVGID_19_)" d="M46.127,61.917c0.76,1.048,1.547,2.079,2.258,3.158
		c0.193,0.295,0.293,0.788,0.195,1.118c-1.958,6.594-3.958,13.177-5.934,19.767c-0.153,0.517-0.397,0.682-0.943,0.654
		c-6.016-0.321-12.035-0.611-18.055-0.944c-0.315-0.015-0.714-0.275-0.911-0.543c-1.832-2.521-3.639-5.064-5.421-7.623
		c-0.187-0.269-0.268-0.726-0.185-1.04c1.525-5.862,3.096-11.711,4.624-17.573c0.163-0.622,0.472-0.762,1.054-0.762
		c6.553,0.018,13.11,0.022,19.664,0.012c0.593-0.002,0.983,0.191,1.314,0.679c0.731,1.068,1.508,2.104,2.267,3.152
		C46.078,61.953,46.104,61.934,46.127,61.917z M30.177,66.223c0.51,1.371,1.03,2.588,1.415,3.843c0.48,1.574,1.284,2.828,2.76,3.661
		c0.835,0.47,1.596,1.094,2.33,1.721c0.536,0.457,0.779,0.313,1.167-0.192c2.404-3.179,4.852-6.33,7.272-9.5
		c0.529-0.689,1.377-1.411,1.399-2.139c0.024-0.682-0.887-1.373-1.322-2.103c-0.353-0.596-0.746-0.669-1.37-0.428
		c-2.789,1.079-5.591,2.12-8.39,3.172C33.714,64.906,31.986,65.549,30.177,66.223z M20.127,80.543
		c0.108,0.004,0.147,0.019,0.167,0.004c3.771-2.607,7.543-5.211,11.297-7.849c0.168-0.116,0.252-0.569,0.171-0.792
		c-0.621-1.736-1.293-3.455-1.956-5.179c-0.069-0.187-0.128-0.43-0.271-0.526c-1.377-0.924-2.772-1.825-4.13-2.71
		c-0.129,0.092-0.195,0.117-0.219,0.162c-2.31,4.553-4.619,9.109-6.915,13.671c-0.079,0.161-0.128,0.438-0.046,0.56
		C18.849,78.799,19.509,79.69,20.127,80.543z M38.407,81.899c-0.293-1.272-0.635-2.4-0.803-3.557
		c-0.198-1.361-0.754-2.383-1.985-3.084c-0.859-0.492-1.652-1.12-2.4-1.775c-0.637-0.559-1.1-0.542-1.796-0.045
		c-2.937,2.114-5.907,4.175-8.896,6.208c-2.103,1.435-2.104,1.388-0.67,3.472c0.359,0.52,0.724,0.633,1.322,0.563
		c3.409-0.423,6.824-0.801,10.235-1.196C35.041,82.298,36.665,82.104,38.407,81.899z M47.059,64.208
		c-0.109,0.069-0.174,0.087-0.206,0.131c-2.979,3.884-5.96,7.77-8.919,11.667c-0.151,0.198-0.228,0.544-0.178,0.787
		c0.33,1.549,0.694,3.09,1.072,4.63c0.049,0.201,0.192,0.471,0.362,0.54c1.206,0.492,2.434,0.938,3.689,1.417
		c1.671-5.518,3.258-10.929,4.977-16.3C48.256,65.83,47.938,65.016,47.059,64.208z M44.221,60.409
		c-0.55-1.225-1.236-1.821-2.646-1.795c-5.29,0.098-10.582,0.03-15.874,0.028c-0.221-0.001-0.442,0.043-0.702,0.07
		c0.131,1.233,0.218,2.408,0.399,3.563c0.054,0.349,0.3,0.763,0.584,0.966c1.049,0.748,2.174,1.391,3.224,2.139
		c0.496,0.35,0.922,0.355,1.458,0.151c3.096-1.183,6.201-2.337,9.304-3.505C41.383,61.492,42.795,60.95,44.221,60.409z
		 M42.723,83.871c-1.205-0.463-2.294-0.906-3.402-1.288c-0.371-0.127-0.804-0.181-1.191-0.137
		c-4.874,0.551-9.743,1.124-14.613,1.692c-0.24,0.027-0.475,0.095-0.726,0.149c0.263,0.697,0.665,0.911,1.317,0.94
		c3.669,0.153,7.335,0.367,11.005,0.552c2.311,0.118,4.625,0.224,6.949,0.333C42.291,85.346,42.496,84.646,42.723,83.871z
		 M22.344,58.639C20.709,64.83,19.101,70.916,17.495,77c0.083,0.025,0.164,0.048,0.246,0.073c0.055-0.059,0.126-0.111,0.163-0.182
		c2.28-4.502,4.56-9.004,6.831-13.509c0.103-0.202,0.187-0.451,0.167-0.669c-0.119-1.338-0.273-2.674-0.42-4.059
		C23.751,58.647,23.083,58.645,22.344,58.639z"/>
	
		<linearGradient id="SVGID_20_" gradientUnits="userSpaceOnUse" x1="51.1455" y1="86.0923" x2="51.0364" y2="71.9067" gradientTransform="matrix(0.8103 -0.586 0.586 0.8103 -48.236 33.4939)">
		<stop  offset="0.0056" style="stop-color:#7DA7D9"/>
		<stop  offset="0.073" style="stop-color:#35517D"/>
		<stop  offset="0.5" style="stop-color:#DEE6F5"/>
		<stop  offset="0.618" style="stop-color:#BACDEA"/>
		<stop  offset="0.6648" style="stop-color:#B6CBE9"/>
		<stop  offset="0.7114" style="stop-color:#ABC3E6"/>
		<stop  offset="0.7578" style="stop-color:#98B7E0"/>
		<stop  offset="0.804" style="stop-color:#7DA7D9"/>
		<stop  offset="0.809" style="stop-color:#7AA5D8"/>
		<stop  offset="1" style="stop-color:#174D6B"/>
	</linearGradient>
	<path fill-rule="evenodd" clip-rule="evenodd" fill="url(#SVGID_20_)" d="M30.177,66.223c1.809-0.674,3.537-1.317,5.261-1.965
		c2.799-1.053,5.601-2.094,8.39-3.172c0.624-0.242,1.017-0.168,1.37,0.428c0.435,0.73,1.346,1.421,1.322,2.103
		c-0.022,0.729-0.87,1.45-1.399,2.139c-2.42,3.17-4.868,6.322-7.272,9.5c-0.388,0.505-0.631,0.649-1.167,0.192
		c-0.734-0.626-1.495-1.251-2.33-1.721c-1.477-0.833-2.28-2.087-2.76-3.661C31.207,68.811,30.687,67.594,30.177,66.223z"/>
	
		<linearGradient id="SVGID_21_" gradientUnits="userSpaceOnUse" x1="36.9595" y1="80.4336" x2="34.5582" y2="69.0822" gradientTransform="matrix(0.8103 -0.586 0.586 0.8103 -48.236 33.4939)">
		<stop  offset="0.0056" style="stop-color:#7DA7D9"/>
		<stop  offset="0.073" style="stop-color:#35517D"/>
		<stop  offset="0.5" style="stop-color:#DEE6F5"/>
		<stop  offset="0.618" style="stop-color:#BACDEA"/>
		<stop  offset="0.6648" style="stop-color:#B6CBE9"/>
		<stop  offset="0.7114" style="stop-color:#ABC3E6"/>
		<stop  offset="0.7578" style="stop-color:#98B7E0"/>
		<stop  offset="0.804" style="stop-color:#7DA7D9"/>
		<stop  offset="0.809" style="stop-color:#7AA5D8"/>
		<stop  offset="1" style="stop-color:#174D6B"/>
	</linearGradient>
	<path fill-rule="evenodd" clip-rule="evenodd" fill="url(#SVGID_21_)" d="M20.127,80.543c-0.618-0.854-1.278-1.744-1.902-2.658
		c-0.083-0.122-0.033-0.399,0.046-0.56c2.296-4.563,4.605-9.118,6.915-13.671c0.024-0.045,0.09-0.07,0.219-0.162
		c1.358,0.885,2.753,1.786,4.13,2.71c0.144,0.097,0.203,0.34,0.271,0.526c0.663,1.724,1.335,3.443,1.956,5.179
		c0.081,0.223-0.003,0.676-0.171,0.792c-3.754,2.638-7.526,5.242-11.297,7.849C20.274,80.563,20.235,80.547,20.127,80.543z"/>
	
		<linearGradient id="SVGID_22_" gradientUnits="userSpaceOnUse" x1="34.3838" y1="89.4624" x2="37.1125" y2="75.9282" gradientTransform="matrix(0.8103 -0.586 0.586 0.8103 -48.236 33.4939)">
		<stop  offset="0.0056" style="stop-color:#7DA7D9"/>
		<stop  offset="0.073" style="stop-color:#35517D"/>
		<stop  offset="0.5" style="stop-color:#DEE6F5"/>
		<stop  offset="0.618" style="stop-color:#BACDEA"/>
		<stop  offset="0.6648" style="stop-color:#B6CBE9"/>
		<stop  offset="0.7114" style="stop-color:#ABC3E6"/>
		<stop  offset="0.7578" style="stop-color:#98B7E0"/>
		<stop  offset="0.804" style="stop-color:#7DA7D9"/>
		<stop  offset="0.809" style="stop-color:#7AA5D8"/>
		<stop  offset="1" style="stop-color:#174D6B"/>
	</linearGradient>
	<path fill-rule="evenodd" clip-rule="evenodd" fill="url(#SVGID_22_)" d="M38.407,81.899c-1.742,0.205-3.366,0.399-4.994,0.586
		c-3.412,0.395-6.827,0.773-10.235,1.196c-0.598,0.07-0.963-0.044-1.322-0.563c-1.434-2.084-1.433-2.037,0.67-3.472
		c2.99-2.033,5.959-4.094,8.896-6.208c0.696-0.497,1.159-0.514,1.796,0.045c0.749,0.655,1.542,1.283,2.4,1.775
		c1.23,0.701,1.787,1.723,1.985,3.084C37.772,79.5,38.114,80.627,38.407,81.899z"/>
	
		<linearGradient id="SVGID_23_" gradientUnits="userSpaceOnUse" x1="53.3013" y1="91.1641" x2="47.845" y2="78.942" gradientTransform="matrix(0.8103 -0.586 0.586 0.8103 -48.236 33.4939)">
		<stop  offset="0.0056" style="stop-color:#7DA7D9"/>
		<stop  offset="0.073" style="stop-color:#35517D"/>
		<stop  offset="0.5" style="stop-color:#DEE6F5"/>
		<stop  offset="0.618" style="stop-color:#BACDEA"/>
		<stop  offset="0.6648" style="stop-color:#B6CBE9"/>
		<stop  offset="0.7114" style="stop-color:#ABC3E6"/>
		<stop  offset="0.7578" style="stop-color:#98B7E0"/>
		<stop  offset="0.804" style="stop-color:#7DA7D9"/>
		<stop  offset="0.809" style="stop-color:#7AA5D8"/>
		<stop  offset="1" style="stop-color:#174D6B"/>
	</linearGradient>
	<path fill-rule="evenodd" clip-rule="evenodd" fill="url(#SVGID_23_)" d="M47.059,64.208c0.879,0.807,1.197,1.622,0.797,2.873
		c-1.719,5.371-3.306,10.782-4.977,16.3c-1.255-0.478-2.483-0.924-3.689-1.417c-0.17-0.069-0.313-0.339-0.362-0.54
		c-0.378-1.541-0.742-3.082-1.072-4.63c-0.05-0.243,0.027-0.589,0.178-0.787c2.959-3.898,5.941-7.783,8.919-11.667
		C46.885,64.296,46.95,64.277,47.059,64.208z"/>
	
		<linearGradient id="SVGID_24_" gradientUnits="userSpaceOnUse" x1="48.5732" y1="75.7671" x2="53.5936" y2="66.2721" gradientTransform="matrix(0.8103 -0.586 0.586 0.8103 -48.236 33.4939)">
		<stop  offset="0.0056" style="stop-color:#7DA7D9"/>
		<stop  offset="0.073" style="stop-color:#35517D"/>
		<stop  offset="0.5" style="stop-color:#DEE6F5"/>
		<stop  offset="0.618" style="stop-color:#BACDEA"/>
		<stop  offset="0.6648" style="stop-color:#B6CBE9"/>
		<stop  offset="0.7114" style="stop-color:#ABC3E6"/>
		<stop  offset="0.7578" style="stop-color:#98B7E0"/>
		<stop  offset="0.804" style="stop-color:#7DA7D9"/>
		<stop  offset="0.809" style="stop-color:#7AA5D8"/>
		<stop  offset="1" style="stop-color:#174D6B"/>
	</linearGradient>
	<path fill-rule="evenodd" clip-rule="evenodd" fill="url(#SVGID_24_)" d="M44.221,60.409c-1.425,0.541-2.837,1.083-4.252,1.616
		c-3.103,1.168-6.208,2.322-9.304,3.505c-0.535,0.204-0.961,0.199-1.458-0.151c-1.05-0.748-2.175-1.391-3.224-2.139
		c-0.285-0.204-0.531-0.618-0.584-0.966c-0.182-1.154-0.268-2.329-0.399-3.563c0.259-0.027,0.48-0.071,0.702-0.07
		c5.292,0.002,10.584,0.07,15.874-0.028C42.985,58.588,43.671,59.185,44.221,60.409z"/>
	
		<linearGradient id="SVGID_25_" gradientUnits="userSpaceOnUse" x1="33.8667" y1="91.2432" x2="38.013" y2="85.7875" gradientTransform="matrix(0.8103 -0.586 0.586 0.8103 -48.236 33.4939)">
		<stop  offset="0.073" style="stop-color:#35517D"/>
		<stop  offset="0.5" style="stop-color:#DEE6F5"/>
		<stop  offset="0.618" style="stop-color:#BACDEA"/>
		<stop  offset="0.6617" style="stop-color:#B6CBE9"/>
		<stop  offset="0.7053" style="stop-color:#ABC3E6"/>
		<stop  offset="0.7486" style="stop-color:#98B7E0"/>
		<stop  offset="0.7918" style="stop-color:#7EA7D9"/>
		<stop  offset="0.792" style="stop-color:#7DA7D9"/>
		<stop  offset="0.809" style="stop-color:#7AA5D8"/>
		<stop  offset="1" style="stop-color:#174D6B"/>
	</linearGradient>
	<path fill-rule="evenodd" clip-rule="evenodd" fill="url(#SVGID_25_)" d="M42.723,83.871c-0.228,0.775-0.432,1.475-0.66,2.241
		c-2.325-0.108-4.638-0.215-6.949-0.333c-3.67-0.186-7.336-0.399-11.005-0.552c-0.652-0.029-1.054-0.243-1.317-0.94
		c0.251-0.054,0.485-0.122,0.726-0.149c4.87-0.568,9.739-1.141,14.613-1.692c0.387-0.043,0.82,0.01,1.191,0.137
		C40.429,82.964,41.519,83.408,42.723,83.871z"/>
	
		<linearGradient id="SVGID_26_" gradientUnits="userSpaceOnUse" x1="37.9653" y1="71.3979" x2="33.2713" y2="64.3024" gradientTransform="matrix(0.8103 -0.586 0.586 0.8103 -48.236 33.4939)">
		<stop  offset="0.0056" style="stop-color:#7DA7D9"/>
		<stop  offset="0.073" style="stop-color:#35517D"/>
		<stop  offset="0.5" style="stop-color:#DEE6F5"/>
		<stop  offset="0.618" style="stop-color:#BACDEA"/>
		<stop  offset="0.6648" style="stop-color:#B6CBE9"/>
		<stop  offset="0.7114" style="stop-color:#ABC3E6"/>
		<stop  offset="0.7578" style="stop-color:#98B7E0"/>
		<stop  offset="0.804" style="stop-color:#7DA7D9"/>
		<stop  offset="0.809" style="stop-color:#7AA5D8"/>
		<stop  offset="1" style="stop-color:#174D6B"/>
	</linearGradient>
	<path fill-rule="evenodd" clip-rule="evenodd" fill="url(#SVGID_26_)" d="M22.344,58.639c0.739,0.006,1.408,0.009,2.137,0.016
		c0.147,1.385,0.301,2.721,0.42,4.059c0.02,0.218-0.063,0.468-0.167,0.669c-2.271,4.505-4.55,9.007-6.831,13.509
		c-0.037,0.071-0.108,0.123-0.163,0.182c-0.083-0.025-0.164-0.047-0.246-0.073C19.101,70.916,20.709,64.83,22.344,58.639z"/>
</g>
</svg>
